<?xml version="1.0" encoding="UTF-8"?>
<svg width="1024px" height="1024px" viewBox="0 0 1024 1024" xmlns="http://www.w3.org/2000/svg" xmlns:xlink="http://www.w3.org/1999/xlink" version="1.1">
 <!-- Amazkombat game icon -->
 <defs>
  <linearGradient id="linear-gradient" gradientUnits="userSpaceOnUse" x1="463.371" y1="1020.757" x2="570.744" y2="2.255">
   <stop offset="0" stop-color="#283e51" stop-opacity="1"/>
   <stop offset="1" stop-color="#4b79a1" stop-opacity="1"/>
  </linearGradient>
 </defs>
 <path id="Rounded-Rectangle" d="M378 0 C169.238 0 0 169.238 0 378 L0 646 C0 854.762 169.238 1024 378 1024 L646 1024 C854.762 1024 1024 854.762 1024 646 L1024 378 C1024 169.238 854.762 0 646 0 Z" fill-opacity="1" fill="url(#linear-gradient)" stroke="none"/>
 <path id="Queen" d="M329 645 L336 671 C336 671 340.899 720.667 397 721 440.008 721.256 550.333 720.917 627 721 662.092 721.038 673.885 693.181 688 671 698.156 655.039 702 616 702 616 L731.712 493.588 C732.781 493.802 733.849 493.802 734.917 493.802 762.918 493.802 786 470.932 786 442.506 786 414.506 763.133 391.637 734.917 391.637 706.92 391.637 684.049 414.72 684.049 442.506 684.049 451.269 686.189 459.391 689.822 466.444 L626.128 512.824 C618.861 517.954 613.945 516.03 609.884 510.26 L536.145 398.69 C551.962 390.141 562.862 373.256 562.862 353.806 562.862 326.02 539.992 302.937 511.993 302.937 483.567 302.937 460.911 325.807 460.911 353.806 460.911 373.256 471.811 390.141 487.627 398.69 L413.248 510.901 C409.614 516.458 405.34 518.168 398.073 513.038 L333.952 466.23 C337.799 459.177 339.723 451.269 339.723 442.506 339.723 414.72 317.067 391.637 288.854 391.637 260.641 391.637 237.772 414.506 237.772 442.506 237.772 470.932 260.855 493.802 288.854 493.802 L329 645 Z" fill="#ffffff" fill-opacity="0.63" stroke="none"/>
</svg>
